<svg width="320" height="320" viewBox="0 0 320 320" fill="none" xmlns="http://www.w3.org/2000/svg">
  <g stroke="#f2DEC6" stroke-width="1.1" stroke-linecap="round" stroke-linejoin="round" opacity="0.55">
    <path d="M18 78C36 52 72 38 108 46C142 54 166 78 164 104C162 134 128 152 94 148C62 144 28 124 18 96"/>
    <path d="M30 84C46 62 76 52 104 58C128 64 146 82 144 102C142 124 116 140 92 138C66 136 42 120 30 102"/>
    <path d="M40 92C52 74 76 66 98 70C118 74 132 86 130 102C128 118 110 128 90 128C70 128 52 116 40 104"/>

    <path d="M188 42C214 22 254 20 282 34C302 44 314 62 308 82C302 104 274 120 242 120C212 118 184 104 176 84C170 68 176 52 188 42"/>
    <path d="M198 50C220 34 252 32 274 42C290 50 298 62 294 78C288 96 266 108 242 108C218 108 194 96 188 80C184 68 188 58 198 50"/>
    <path d="M206 58C224 46 248 46 264 52C276 58 282 66 280 76C276 88 260 96 242 96C224 96 206 88 200 76C196 68 198 62 206 58"/>

    <path d="M156 196C178 176 208 168 236 174C266 180 286 200 286 226C286 254 260 276 228 282C196 288 162 278 142 256C126 238 128 214 156 196"/>
    <path d="M168 204C186 188 210 182 234 186C258 190 274 206 274 226C274 248 254 266 228 270C202 274 176 266 160 250C148 238 148 220 168 204"/>
    <path d="M178 212C194 200 214 196 232 198C250 202 262 212 262 226C262 242 246 254 228 258C208 260 188 256 176 244C166 236 164 222 178 212"/>

    <path d="M24 236C44 220 72 214 98 220C118 224 132 238 130 256C128 278 106 294 80 296C56 298 30 286 20 266C14 254 14 244 24 236"/>
    <path d="M34 242C50 230 72 226 92 230C108 234 118 244 116 258C114 274 98 286 80 288C62 290 42 282 32 268C26 258 26 248 34 242"/>
  </g>
</svg>

